<svg xmlns="http://www.w3.org/2000/svg" width="146" height="77" viewBox="0 0 146 77">
    <g fill="#275EA3" fill-rule="evenodd">
        <path d="M4.32 4.36l.02 9.38 1.96.82c.1.06.12.44 0 .44H1.66c-.12 0-.1-.38 0-.44l1.76-.82.08-10.18-.52-.68-1.42-.74c-.1-.06-.1-.44 0-.44H5.9l.16.56c.88.98 2.18 2.56 3.52 4.2 1.26 1.58 2.66 3.32 3.4 4.38V2.96L11 2.14c-.1-.04-.12-.44 0-.44h4.64c.12 0 .1.38 0 .44l-1.74.82-.16 12.12c0 .12-.42.14-.6-.04-.98-.98-2.94-3.3-4.62-5.34-1.76-2.18-3.18-3.98-4.2-5.34zm17 .72c3.12 0 5.24 1.8 5.24 4.96 0 3.2-2.02 5.22-5.14 5.22-3.22 0-5.28-1.82-5.28-5.06 0-3.12 2.02-5.12 5.18-5.12zm1.62 9c.44-.68.74-2.3.72-3.96-.02-2.84-.76-4.32-2.34-4.32-.58 0-1.08.12-1.46.36-.48.58-.82 2.26-.8 4 .04 2.86.68 4.36 2.36 4.36.62 0 1.12-.14 1.52-.44zm10.78.5c.08.04.08.42-.02.42h-5.68c-.12 0-.1-.36 0-.42l1.34-.78c-.04-.86-.08-2.08-.08-3.44 0-1.66.04-2.62.08-3.42l-1.52-.88c-.1-.06-.1-.5.02-.52.32-.04 2.5-.2 3.86-.2.12.38.18.86.2 1.76.74-.72 1.86-1.92 3.06-1.94.96-.04 1.14.36 1.1 1.28-.04.76-.28 1.32-.48 1.52-.12.04-.3.04-.38 0-.68-.32-1.42-.84-1.86-.88-.56.04-1.18.3-1.42.46v1.48c0 1.26-.02 3.42-.08 4.76l1.86.8zm7.4.66c-2.28 0-2.98-.86-3.08-3.32-.04-1.54.02-3.78.1-5.24H36.8c-.06 0-.06-.52 0-.56l1.44-.72 1.9-2.56c.1-.12.78-.14.78 0-.04.74-.08 1.86-.1 2.66l2.72-.06c.12 0 .08 1.34-.02 1.34l-2.72-.1c-.04 1.12-.12 3.42-.1 4.84.02 2 .32 2.26 1.7 2.26.58 0 1.22-.16 1.66-.3.08-.02.2.38.14.44-.44.46-1.56 1.32-3.08 1.32zm8.74-.66c.06.04.08.42-.02.42h-4.92c-.12 0-.1-.36 0-.42l1.28-.78c-.04-1.38-.08-3.4-.08-6.02 0-2.36.06-4.44.12-5.72l-1.56-.84c-.12-.06-.12-.46 0-.48.36-.06 2.48-.36 3.88-.4.18.68.2 1.6.2 4.16v2.3c.66-.48 2.22-1.62 3.44-1.62 1.88 0 2.92.94 2.98 3.48.04 1.64-.12 3.8-.22 5.14l1.42.78c.08.06.1.42-.02.42h-5.2c-.12 0-.1-.38 0-.42l1.18-.78c.06-1.16.14-3.06.14-4.44 0-1.92-.18-2.5-1.44-2.5-1.04 0-1.86.28-2.28.4-.02 2.94-.04 5.24-.08 6.54l1.18.78zm7.72-4.26c0-3.46 2.3-5.24 5-5.24 2.72 0 4 2.1 3.88 4.28-.04.24-.28.5-.44.5l-5.64-.02c.04 2.56.7 3.88 2.9 3.88 1.24 0 2.18-.32 2.88-.8.08-.04.38.3.26.46-.88 1.16-2.48 1.88-3.88 1.88-2.94 0-4.94-1.38-4.96-4.94zm2.82-1.1l3.46-.1c.02-.34.04-.8.02-1.1-.08-1.5-.54-2.22-1.6-2.22-.42 0-.76.06-1.08.28-.42.48-.76 1.74-.8 3.14zm13.18 5.36c.08.04.08.42-.02.42h-5.68c-.12 0-.1-.36 0-.42l1.34-.78c-.04-.86-.08-2.08-.08-3.44 0-1.66.04-2.62.08-3.42l-1.52-.88c-.1-.06-.1-.5.02-.52.32-.04 2.5-.2 3.86-.2.12.38.18.86.2 1.76.74-.72 1.86-1.92 3.06-1.94.96-.04 1.14.36 1.1 1.28-.04.76-.28 1.32-.48 1.52-.12.04-.3.04-.38 0-.68-.32-1.42-.84-1.86-.88-.56.04-1.18.3-1.42.46v1.48c0 1.26-.02 3.42-.08 4.76l1.86.8zm8.24 0c.08.04.1.42 0 .42h-5c-.12 0-.1-.36 0-.42l1.34-.78c-.04-.86-.08-2.08-.08-3.44 0-1.66.04-2.62.08-3.42l-1.52-.88c-.1-.06-.1-.5.02-.52.32-.04 2.5-.2 3.86-.2.1.34.16.74.2 1.48.62-.46 2.22-1.64 3.46-1.64 1.88 0 2.92.94 2.96 3.48.04 1.64-.08 3.8-.2 5.14l1.42.78c.08.06.1.42-.02.42h-5.22c-.1 0-.08-.38 0-.42l1.18-.78c.08-1.16.16-3.06.16-4.44 0-1.92-.18-2.5-1.46-2.5-1.02 0-1.86.28-2.28.42.02.46.02 1.04.02 1.78 0 1.26-.02 3.4-.08 4.74l1.16.78zM15.56 36.96c-.08.22-.76.16-.84 0-.44-1-1.14-2.88-1.76-4.54-.56-1.54-1.18-3.32-1.52-4.48l-3.62 9.02c-.06.2-.76.2-.82 0-.5-1.16-1.66-4.28-2.38-6.38-.76-2.16-1.44-4.24-1.82-5.62l-1.7-.82c-.1-.06-.1-.44.02-.44h6.12c.12 0 .06.38-.02.44l-1.52.78c.4.98.96 2.46 1.5 4.12.58 1.74 1.04 3.24 1.36 4.3L11 26.78l-.54-1.84-1.52-.8c-.1-.06-.1-.44.02-.44h5.9c.1 0 .06.4 0 .44l-1.58.74c.4 1.02.98 2.56 1.52 4.12.58 1.74 1.04 3.2 1.38 4.3l2.72-8.36-1.9-.8c-.1-.06-.12-.44 0-.44h4.56c.12 0 .1.4.02.44l-1.56.8-4.46 12.02zm9.72 1.72c.22-.36.6-1.16.72-1.44-.56-1-1.38-2.6-2.18-4.32-.86-1.82-1.44-3.2-1.86-4.24l-1.24-.8c-.12-.1-.16-.52.02-.52h5.22c.12 0 .1.46 0 .52l-1.28.72c.32.64.84 1.7 1.36 2.9.52 1.12.98 2.26 1.26 3l2.3-5.9-1.3-.72c-.1-.06-.12-.52.02-.52h3.54c.14 0 .14.44.02.52l-1.22.78c-.22.52-4.32 9.66-4.6 10.22-.84 1.78-2.44 3.44-4.42 3.24-.34-.1-.7-1.02-.7-1.52 0-.16.22-.44.44-.44h2.4c.5-.2 1-.56 1.5-1.48zm13-10.68c-.24-.14-.62-.18-.96-.18-.52 0-1.02.1-1.36.36-.46.72-.8 1.98-.8 3.54 0 3.24 1.04 3.98 2.88 4 1.1.02 2.02-.26 2.78-.76.08-.06.36.28.24.46-.86 1.16-2.4 1.84-3.8 1.84-2.9 0-4.94-1.38-4.94-4.94 0-3.4 2.28-5.24 5.3-5.24 1.74 0 3.08.72 3.38 1.64.16.94-.34 1.74-1.26 1.74-.24 0-.46-.02-.58-.08L38.28 28zm8.6 8.58c.06.04.08.42-.02.42h-4.92c-.12 0-.1-.36 0-.42l1.28-.78c-.04-1.38-.08-3.4-.08-6.02 0-2.36.06-4.44.12-5.72l-1.56-.84c-.12-.06-.12-.46 0-.48.36-.06 2.48-.36 3.88-.4.18.68.2 1.6.2 4.16v2.3c.66-.48 2.22-1.62 3.44-1.62 1.88 0 2.92.94 2.98 3.48.04 1.64-.12 3.8-.22 5.14l1.42.78c.08.06.1.42-.02.42h-5.2c-.12 0-.1-.38 0-.42l1.18-.78c.06-1.16.14-3.06.14-4.44 0-1.92-.18-2.5-1.44-2.5-1.04 0-1.86.28-2.28.4-.02 2.94-.04 5.24-.08 6.54l1.18.78zm18.34.38c-.08.18-.66.16-.74 0-.34-.62-.82-1.7-1.32-2.92-.5-1.2-.9-2.2-1.14-2.9l-2.74 5.82c-.06.18-.64.16-.74 0-.44-.9-1.24-2.78-1.9-4.48-.66-1.68-1.1-2.94-1.38-3.8l-1.2-.8c-.12-.08-.14-.52.02-.52h4.84c.12 0 .12.42 0 .52l-1.06.72c.26.62.76 1.82 1.1 2.7.38 1.02.76 2 .98 2.68l1.7-3.82c-.12-.36-.38-1.08-.52-1.54l-1-.74c-.14-.12-.14-.52.02-.52h4.56c.14 0 .12.44 0 .52l-1.04.72c.26.6.68 1.64 1.06 2.66.38 1.02.8 2.08 1.02 2.74l2-5.38-1.26-.74c-.14-.08-.12-.52.02-.52h3.48c.12 0 .12.44 0 .52l-1.22.78-3.54 8.3zm10.12-9.88c3.12 0 5.24 1.8 5.24 4.96 0 3.2-2.02 5.22-5.14 5.22-3.22 0-5.28-1.82-5.28-5.06 0-3.12 2.02-5.12 5.18-5.12zm1.62 9c.44-.68.74-2.3.72-3.96-.02-2.84-.76-4.32-2.34-4.32-.58 0-1.08.12-1.46.36-.48.58-.82 2.26-.8 4 .04 2.86.68 4.36 2.36 4.36.62 0 1.12-.14 1.52-.44zm10.18-9c3.12 0 5.24 1.8 5.24 4.96 0 3.2-2.02 5.22-5.14 5.22-3.22 0-5.28-1.82-5.28-5.06 0-3.12 2.02-5.12 5.18-5.12zm1.62 9c.44-.68.74-2.3.72-3.96-.02-2.84-.76-4.32-2.34-4.32-.58 0-1.08.12-1.46.36-.48.58-.82 2.26-.8 4 .04 2.86.68 4.36 2.36 4.36.62 0 1.12-.14 1.52-.44zm16.14.18c-.44.34-1.78.92-2.64.92-.88-.06-1.3-.62-1.48-1.38-.66.58-1.76 1.36-2.9 1.36-2.34 0-4-1.36-4.02-4.54-.02-3.66 2.22-5.4 4.94-5.4.84 0 1.44.12 1.92.38.02-1.34.06-2.82.1-3.56l-1.6-.82c-.1-.06-.1-.46.02-.48.2-.02 2.52-.36 3.92-.4.16.58.2 2.68.2 6.52 0 2.7-.06 4.86-.16 6.54l.2.22 1.46.22c.1.02.12.36.04.42zm-8.32-3.96c.04 2.62.7 3.5 2.28 3.5.8 0 1.5-.22 1.88-.4-.1-1.38-.02-4.26-.02-6.54-.4-.54-1.04-.88-1.78-.88-.72 0-1.24.16-1.68.48-.44.7-.7 2.42-.68 3.84zm13.14 4.7c-.12 0-.1-.38 0-.44l1.74-.8c-.04-1.36-.12-3.12-.12-5.64 0-2.58.08-3.92.12-5.18l-1.74-.8c-.1-.06-.1-.44 0-.44h6.44c.1 0 .1.4 0 .44l-1.82.8v11.02l.28.28 3.74-.14 1.86-3.1c.08-.14.5-.12.5 0l-.32 3.58c-.02.14-.3.42-.46.42h-10.22zm16.34.24c-2.28 0-2.98-.86-3.08-3.32-.04-1.54.02-3.78.1-5.24h-1.34c-.06 0-.06-.52 0-.56l1.44-.72 1.9-2.56c.1-.12.78-.14.78 0-.04.74-.08 1.86-.1 2.66l2.72-.06c.12 0 .08 1.34-.02 1.34l-2.72-.1c-.04 1.12-.12 3.42-.1 4.84.02 2 .32 2.26 1.7 2.26.58 0 1.22-.16 1.66-.3.08-.02.2.38.14.44-.44.46-1.56 1.32-3.08 1.32zm14.96-.98c-.44.34-1.78.92-2.64.92-.88-.06-1.3-.62-1.48-1.38-.66.58-1.76 1.36-2.9 1.36-2.34 0-4-1.36-4.02-4.54-.02-3.66 2.22-5.4 4.94-5.4.84 0 1.44.12 1.92.38.02-1.34.06-2.82.1-3.56l-1.6-.82c-.1-.06-.1-.46.02-.48.2-.02 2.52-.36 3.92-.4.16.58.2 2.68.2 6.52 0 2.7-.06 4.86-.16 6.54l.2.22 1.46.22c.1.02.12.36.04.42zm-8.32-3.96c.04 2.62.7 3.5 2.28 3.5.8 0 1.5-.22 1.88-.4-.1-1.38-.02-4.26-.02-6.54-.4-.54-1.04-.88-1.78-.88-.72 0-1.24.16-1.68.48-.44.7-.7 2.42-.68 3.84z"/>
        <path d="M1.736 63v-5.568h.736v4.936h2.904L5.272 63H1.736zm4.352 0v-4.056h.704V63h-.704zm.704-5h-.704v-.872h.704V58zm3.696 3.76h.696c-.168.696-.64 1.336-1.672 1.336-1.12 0-1.808-.8-1.808-2.104 0-1.144.648-2.144 1.856-2.144 1.168 0 1.576.832 1.624 1.352h-.696c-.096-.408-.352-.768-.944-.768-.712 0-1.12.616-1.12 1.536 0 .928.392 1.544 1.096 1.544.504 0 .8-.272.968-.752zm4.824-.664h-2.864c.008.824.424 1.416 1.112 1.416.64 0 .848-.336.976-.632h.712c-.16.52-.6 1.216-1.712 1.216-1.272 0-1.792-1.04-1.792-2.08 0-1.208.608-2.168 1.84-2.168 1.312 0 1.736 1.048 1.736 1.912 0 .128 0 .232-.008.336zm-2.84-.488h2.136c-.008-.672-.344-1.208-1.032-1.208-.72 0-1.032.496-1.104 1.208zM16.216 63v-3.032c0-.352 0-.712-.008-1.024h.68c.024.12.032.544.032.664.16-.344.488-.76 1.272-.76.768 0 1.36.464 1.36 1.544V63h-.704v-2.52c0-.616-.24-1.024-.856-1.024-.768 0-1.072.584-1.072 1.4V63h-.704zm4.168-1.16h.704c.112.44.44.704.992.704.592 0 .824-.256.824-.624 0-.384-.184-.56-.96-.744-1.16-.28-1.4-.64-1.4-1.192 0-.568.424-1.136 1.464-1.136 1.048 0 1.48.608 1.528 1.168h-.672c-.064-.256-.264-.624-.88-.624-.568 0-.744.272-.744.536 0 .304.168.456.912.632 1.232.296 1.48.704 1.48 1.304 0 .712-.568 1.232-1.576 1.232-1.048 0-1.568-.528-1.672-1.256zm7.424-.744h-2.864c.008.824.424 1.416 1.112 1.416.64 0 .848-.336.976-.632h.712c-.16.52-.6 1.216-1.712 1.216-1.272 0-1.792-1.04-1.792-2.08 0-1.208.608-2.168 1.84-2.168 1.312 0 1.736 1.048 1.736 1.912 0 .128 0 .232-.008.336zm-2.84-.488h2.136c-.008-.672-.344-1.208-1.032-1.208-.72 0-1.032.496-1.104 1.208zm6.416-3.48h.704v4.728c0 .376 0 .752.008 1.144h-.672a3.98 3.98 0 0 1-.04-.576c-.2.424-.608.672-1.272.672-1.048 0-1.688-.848-1.688-2.08 0-1.248.696-2.168 1.816-2.168.72 0 1.04.288 1.144.52v-2.24zm-2.232 3.864c0 .976.464 1.512 1.104 1.512.944 0 1.16-.704 1.16-1.592 0-.904-.192-1.472-1.104-1.472-.72 0-1.16.568-1.16 1.552zm6.152.648v-4.512h.704v2.392c.176-.344.552-.672 1.288-.672 1.024 0 1.664.84 1.664 2.04 0 1.232-.624 2.208-1.768 2.208-.648 0-.992-.24-1.192-.632 0 .208-.016.424-.032.536h-.672c.008-.456.008-.912.008-1.36zm2.936-.736c0-.88-.4-1.464-1.104-1.464-.864 0-1.168.576-1.168 1.544 0 .848.272 1.52 1.128 1.52.72 0 1.144-.616 1.144-1.6zm1.112-1.96h.76c.656 1.944 1.016 3.016 1.128 3.432h.008c.128-.464.416-1.392 1.08-3.432h.704l-1.456 4.24c-.408 1.192-.72 1.488-1.544 1.488-.128 0-.28-.008-.44-.024v-.608c.104.008.224.016.336.016.512 0 .704-.224.944-.896l-1.52-4.216zm5.872.568v-.568h.704v-1.2h.696v1.2h.896v.568h-.896v2.376c0 .4.096.6.464.6.096 0 .24-.008.352-.032v.528c-.168.064-.408.072-.608.072-.632 0-.904-.328-.904-1v-2.544h-.704zm3.072-2.384H49v2.416c.2-.36.576-.696 1.264-.696.648 0 1.368.352 1.368 1.56V63h-.704v-2.472c0-.688-.288-1.072-.88-1.072-.728 0-1.048.48-1.048 1.328V63h-.704v-5.872zm7.808 3.968H53.24c.008.824.424 1.416 1.112 1.416.64 0 .848-.336.976-.632h.712c-.16.52-.6 1.216-1.712 1.216-1.272 0-1.792-1.04-1.792-2.08 0-1.208.608-2.168 1.84-2.168 1.312 0 1.736 1.048 1.736 1.912 0 .128 0 .232-.008.336zm-2.84-.488H55.4c-.008-.672-.344-1.208-1.032-1.208-.72 0-1.032.496-1.104 1.208zm5.904-3.176h.736V63h-.736v-5.568zm1.712 4.408h.704c.112.44.44.704.992.704.592 0 .824-.256.824-.624 0-.384-.184-.56-.96-.744-1.16-.28-1.4-.64-1.4-1.192 0-.568.424-1.136 1.464-1.136 1.048 0 1.48.608 1.528 1.168h-.672c-.064-.256-.264-.624-.88-.624-.568 0-.744.272-.744.536 0 .304.168.456.912.632 1.232.296 1.48.704 1.48 1.304 0 .712-.568 1.232-1.576 1.232-1.048 0-1.568-.528-1.672-1.256zM65.728 63h-.704v-5.872h.704V63zm4.472-1.904h-2.864c.008.824.424 1.416 1.112 1.416.64 0 .848-.336.976-.632h.712c-.16.52-.6 1.216-1.712 1.216-1.272 0-1.792-1.04-1.792-2.08 0-1.208.608-2.168 1.84-2.168 1.312 0 1.736 1.048 1.736 1.912 0 .128 0 .232-.008.336zm-2.84-.488h2.136c-.008-.672-.344-1.208-1.032-1.208-.72 0-1.032.496-1.104 1.208zm7.392-1.76c1.128 0 1.864.84 1.864 2.112 0 1.176-.672 2.136-1.912 2.136-1.16 0-1.864-.896-1.864-2.12 0-1.2.688-2.128 1.912-2.128zm-.032.584c-.76 0-1.16.616-1.16 1.536 0 .896.448 1.544 1.176 1.544.736 0 1.16-.616 1.16-1.536 0-.912-.416-1.544-1.176-1.544zM78.352 63h-.704v-3.488H77v-.568h.648v-.488c0-.744.288-1.408 1.184-1.408.152 0 .352.016.448.048v.6a1.695 1.695 0 0 0-.352-.04c-.416 0-.576.256-.576.848v.44h.816v.568h-.816V63zm8.352 0v-2.368c0-1.04.016-2.088.04-2.672h-.032c-.24.904-1.136 3.288-1.776 5.04h-.664c-.48-1.424-1.416-4.104-1.664-5.056h-.024c.04.648.064 1.88.064 2.84V63h-.696v-5.568h1.096c.632 1.728 1.408 3.96 1.6 4.664h.008c.136-.536 1.048-2.976 1.704-4.664h1.064V63h-.72zm5.08-2.824v1.936c0 .376.032.768.056.888h-.672c-.032-.088-.056-.28-.064-.528-.144.264-.472.624-1.256.624-.96 0-1.368-.624-1.368-1.24 0-.904.712-1.32 1.92-1.32h.688v-.344c0-.36-.112-.792-.872-.792-.672 0-.792.336-.864.648h-.68c.056-.56.4-1.2 1.568-1.2.992 0 1.544.408 1.544 1.328zm-.688.976v-.128h-.656c-.808 0-1.24.224-1.24.792 0 .424.288.728.792.728.976 0 1.104-.656 1.104-1.392zM92.992 63v-3.032c0-.352 0-.712-.008-1.024h.68c.024.12.032.544.032.664.16-.344.488-.76 1.272-.76.768 0 1.36.464 1.36 1.544V63h-.704v-2.52c0-.616-.24-1.024-.856-1.024-.768 0-1.072.584-1.072 1.4V63h-.704zm6.688 0v-5.568h3.576v.632h-2.848v1.808h2.664v.632h-2.664V63h-.728zm4.376 0v-4.056h.704V63h-.704zm.704-5h-.704v-.872h.704V58zm1.192 5v-3.032c0-.352 0-.712-.008-1.024h.68c.024.12.032.544.032.664.16-.344.488-.76 1.272-.76.768 0 1.36.464 1.36 1.544V63h-.704v-2.52c0-.616-.24-1.024-.856-1.024-.768 0-1.072.584-1.072 1.4V63h-.704zm7.552-2.824v1.936c0 .376.032.768.056.888h-.672c-.032-.088-.056-.28-.064-.528-.144.264-.472.624-1.256.624-.96 0-1.368-.624-1.368-1.24 0-.904.712-1.32 1.92-1.32h.688v-.344c0-.36-.112-.792-.872-.792-.672 0-.792.336-.864.648h-.68c.056-.56.4-1.2 1.568-1.2.992 0 1.544.408 1.544 1.328zm-.688.976v-.128h-.656c-.808 0-1.24.224-1.24.792 0 .424.288.728.792.728.976 0 1.104-.656 1.104-1.392zM114.712 63v-3.032c0-.352 0-.712-.008-1.024h.68c.024.12.032.544.032.664.16-.344.488-.76 1.272-.76.768 0 1.36.464 1.36 1.544V63h-.704v-2.52c0-.616-.24-1.024-.856-1.024-.768 0-1.072.584-1.072 1.4V63h-.704zm7.032-1.24h.696c-.168.696-.64 1.336-1.672 1.336-1.12 0-1.808-.8-1.808-2.104 0-1.144.648-2.144 1.856-2.144 1.168 0 1.576.832 1.624 1.352h-.696c-.096-.408-.352-.768-.944-.768-.712 0-1.12.616-1.12 1.536 0 .928.392 1.544 1.096 1.544.504 0 .8-.272.968-.752zm1.544 1.24v-4.056h.704V63h-.704zm.704-5h-.704v-.872h.704V58zm4.216 2.176v1.936c0 .376.032.768.056.888h-.672c-.032-.088-.056-.28-.064-.528-.144.264-.472.624-1.256.624-.96 0-1.368-.624-1.368-1.24 0-.904.712-1.32 1.92-1.32h.688v-.344c0-.36-.112-.792-.872-.792-.672 0-.792.336-.864.648h-.68c.056-.56.4-1.2 1.568-1.2.992 0 1.544.408 1.544 1.328zm-.688.976v-.128h-.656c-.808 0-1.24.224-1.24.792 0 .424.288.728.792.728.976 0 1.104-.656 1.104-1.392zm2.6 1.848h-.704v-5.872h.704V63zM1.328 73.448h.752c.152.672.608 1.032 1.416 1.032.864 0 1.208-.408 1.208-.936 0-.56-.272-.872-1.384-1.136-1.312-.32-1.768-.768-1.768-1.552 0-.832.608-1.504 1.848-1.504 1.328 0 1.872.768 1.952 1.496H4.6c-.104-.488-.408-.896-1.224-.896-.68 0-1.056.304-1.056.832 0 .52.312.728 1.288.968 1.584.384 1.864 1 1.864 1.72 0 .896-.664 1.6-2.024 1.6-1.4 0-2-.768-2.12-1.624zm8.4-.352H6.864c.008.824.424 1.416 1.112 1.416.64 0 .848-.336.976-.632h.712c-.16.52-.6 1.216-1.712 1.216-1.272 0-1.792-1.04-1.792-2.08 0-1.208.608-2.168 1.84-2.168 1.312 0 1.736 1.048 1.736 1.912 0 .128 0 .232-.008.336zm-2.84-.488h2.136c-.008-.672-.344-1.208-1.032-1.208-.72 0-1.032.496-1.104 1.208zM10.632 75v-2.952c0-.568-.008-.888-.008-1.104h.688c.008.112.024.432.024.824.208-.544.688-.904 1.36-.92v.696c-.832.024-1.36.464-1.36 1.488V75h-.704zm2.312-4.056h.752c.544 1.656.944 2.896 1.072 3.4h.008c.096-.448.528-1.664 1.136-3.4h.712L15.136 75h-.776l-1.416-4.056zM17.32 75v-4.056h.704V75h-.704zm.704-5h-.704v-.872h.704V70zm3.696 3.76h.696c-.168.696-.64 1.336-1.672 1.336-1.12 0-1.808-.8-1.808-2.104 0-1.144.648-2.144 1.856-2.144 1.168 0 1.576.832 1.624 1.352h-.696c-.096-.408-.352-.768-.944-.768-.712 0-1.12.616-1.12 1.536 0 .928.392 1.544 1.096 1.544.504 0 .8-.272.968-.752zm4.824-.664H23.68c.008.824.424 1.416 1.112 1.416.64 0 .848-.336.976-.632h.712c-.16.52-.6 1.216-1.712 1.216-1.272 0-1.792-1.04-1.792-2.08 0-1.208.608-2.168 1.84-2.168 1.312 0 1.736 1.048 1.736 1.912 0 .128 0 .232-.008.336zm-2.84-.488h2.136c-.008-.672-.344-1.208-1.032-1.208-.72 0-1.032.496-1.104 1.208zm3.384 1.232h.704c.112.44.44.704.992.704.592 0 .824-.256.824-.624 0-.384-.184-.56-.96-.744-1.16-.28-1.4-.64-1.4-1.192 0-.568.424-1.136 1.464-1.136 1.048 0 1.48.608 1.528 1.168h-.672c-.064-.256-.264-.624-.88-.624-.568 0-.744.272-.744.536 0 .304.168.456.912.632 1.232.296 1.48.704 1.48 1.304 0 .712-.568 1.232-1.576 1.232-1.048 0-1.568-.528-1.672-1.256zm9.28-.512h-2.216l-.6 1.672h-.736l1.984-5.568h.904L37.776 75h-.792l-.616-1.672zm-2.024-.632h1.84c-.536-1.464-.824-2.24-.944-2.664h-.008c-.136.472-.464 1.416-.888 2.664zm7.448-1.752v2.872c0 .4.008.944.008 1.184h-.68a7.468 7.468 0 0 1-.032-.608c-.2.448-.584.704-1.224.704-.688 0-1.344-.344-1.344-1.488v-2.664h.696v2.52c0 .528.168 1.024.84 1.024.744 0 1.032-.416 1.032-1.432v-2.112h.704zm.68.568v-.568h.704v-1.2h.696v1.2h.896v.568h-.896v2.376c0 .4.096.6.464.6.096 0 .24-.008.352-.032v.528c-.168.064-.408.072-.608.072-.632 0-.904-.328-.904-1v-2.544h-.704zm3.072-2.384h.704v2.416c.2-.36.576-.696 1.264-.696.648 0 1.368.352 1.368 1.56V75h-.704v-2.472c0-.688-.288-1.072-.88-1.072-.728 0-1.048.48-1.048 1.328V75h-.704v-5.872zm6.152 1.72c1.128 0 1.864.84 1.864 2.112 0 1.176-.672 2.136-1.912 2.136-1.16 0-1.864-.896-1.864-2.12 0-1.2.688-2.128 1.912-2.128zm-.032.584c-.76 0-1.16.616-1.16 1.536 0 .896.448 1.544 1.176 1.544.736 0 1.16-.616 1.16-1.536 0-.912-.416-1.544-1.176-1.544zM54.472 75v-2.952c0-.568-.008-.888-.008-1.104h.688c.008.112.024.432.024.824.208-.544.688-.904 1.36-.92v.696c-.832.024-1.36.464-1.36 1.488V75h-.704zm2.816 0v-4.056h.704V75h-.704zm.704-5h-.704v-.872h.704V70zm.672 1.512v-.568h.704v-1.2h.696v1.2h.896v.568h-.896v2.376c0 .4.096.6.464.6.096 0 .24-.008.352-.032v.528c-.168.064-.408.072-.608.072-.632 0-.904-.328-.904-1v-2.544h-.704zm2.552-.568h.76c.656 1.944 1.016 3.016 1.128 3.432h.008c.128-.464.416-1.392 1.08-3.432h.704l-1.456 4.24c-.408 1.192-.72 1.488-1.544 1.488-.128 0-.28-.008-.44-.024v-.608c.104.008.224.016.336.016.512 0 .704-.224.944-.896l-1.52-4.216z" opacity=".9"/>
        <path fill-rule="nonzero" d="M.5 48.5v-1h145v1z"/>
    </g>
</svg>
